<svg xmlns="http://www.w3.org/2000/svg" viewBox="0 0 30 30" aria-labelledby="title">
	<title id="title">Chat</title>
	<style type="text/css">
		.hwaTeal{fill:#00849B;}
		.white{fill-rule:evenodd;clip-rule:evenodd;fill:#FFFFFF;}
	</style>
	<circle class="hwaTeal" cx="15" cy="15" r="15"/>
	<path class="white" d="m22.4 10.8c-2.3-4.1-7.6-5.5-11.7-3.2s-5.5 7.6-3.2 11.7l0.1 0.1-0.9 3.8 3.7-1 0.1 0.1c1.3 0.8 2.8 1.2 4.4 1.2 1.5 0 3-0.4 4.2-1.1 4.2-2.3 5.7-7.5 3.3-11.6zm-7.4 8.2c-2.2 0-4-1.8-4-4 0-0.3 0.2-0.5 0.5-0.5s0.5 0.2 0.5 0.5c0 1.7 1.3 3 3 3s3-1.3 3-3c0-0.3 0.2-0.5 0.5-0.5s0.5 0.2 0.5 0.5c0 2.2-1.8 4-4 4z"/>
</svg>
